<svg width="130" height="130" viewBox="0 0 130 130" fill="none" xmlns="http://www.w3.org/2000/svg">
<rect width="130" height="130" rx="10" fill="#EFF0F6"/>
<path d="M81.35 42.75H48.85C44.05 42.75 40 46.8 40 51.65V78.35C40 83.2 44.05 87.25 48.9 87.25H81.15C85.95 87.25 90.05 83.2 90.05 78.35V51.65C90.25 46.8 86.2 42.75 81.35 42.75V42.75ZM84.9 78.6C84.9 80.65 83.4 82.4 81.35 82.4H48.85C46.8 82.4 45.05 80.6 45.05 78.6V51.65C45.05 49.6 46.85 47.85 48.85 47.85H81.1C83.15 47.85 84.9 49.65 84.9 51.65V78.6Z" fill="#D6DBDE"/>
<path d="M76.8 51.3999C75.8 51.3999 74.75 51.8999 74 52.6499C73.25 53.3999 73 54.1999 73 55.1999C73 57.2499 74.8 58.9999 76.8 58.9999C78.8 58.9999 80.6 57.1999 80.6 55.1999C80.6 53.1999 78.8 51.3999 76.8 51.3999V51.3999Z" fill="#D6DBDE"/>
<path d="M73.7499 61.7998C72.9999 59.9998 70.4499 59.7498 69.1999 61.2998L65.8999 66.1498C64.8999 67.6998 62.5999 67.6998 61.5999 66.1498L60.5999 64.8998C59.5999 63.3498 57.2999 63.6498 56.2999 65.1498L50.6499 74.0498C49.6499 75.8498 50.6499 78.0998 52.9499 78.0998H76.7999C78.5999 78.0998 79.8499 76.0498 79.0999 74.2998L73.7499 61.7998Z" fill="#D6DBDE"/>
</svg>
