<svg width="160" height="160" viewBox="0 0 160 160" fill="none" xmlns="http://www.w3.org/2000/svg">
<rect x="0.6" y="0.6" width="158.8" height="158.8" rx="79.4" fill="white" stroke="#F1EDEE" stroke-width="1.2" stroke-linecap="round" stroke-dasharray="8 8"/>
<g clip-path="url(#clip0_621_9233)">
<path d="M58.0003 64.4374C58.1266 63.806 58.2137 63.1623 58.3881 62.5443C58.9412 60.573 60.0376 58.9503 61.649 57.6886C61.8915 57.4986 61.9161 57.3008 61.8815 57.0337C61.4423 53.6465 63.2561 50.6638 66.4489 49.5306C67.4893 49.1618 68.5655 49.0668 69.654 49.24C69.9155 49.2814 70.0283 49.1886 70.1557 48.9908C72.6311 45.1331 76.177 43.1305 80.7477 43.0042C85.7152 42.8667 90.6011 46.1299 92.407 50.7532C92.7121 51.5355 92.8931 52.3658 93.1558 53.1659C93.2027 53.3079 93.3446 53.4777 93.4798 53.5224C97.6147 54.9138 100.146 57.7713 101.046 62.0034C101.741 65.2711 100.954 68.2672 98.9256 70.9113C97.2571 73.0849 95.0578 74.4439 92.3567 74.9579C91.9578 75.0339 91.5476 75.0943 91.142 75.0965C88.9728 75.1099 86.8026 75.1077 84.6334 75.0998C83.8925 75.0976 83.3862 74.635 83.3572 73.9711C83.3259 73.2425 83.8467 72.7173 84.6323 72.715C86.5344 72.7083 88.4364 72.7128 90.3373 72.7117C93.5145 72.7106 95.9217 71.2723 97.5622 68.626C100.239 64.31 98.6898 58.7469 94.1984 56.38C93.5726 56.0503 92.8685 55.8503 92.1801 55.6648C91.2928 55.4256 90.9989 55.1462 90.8872 54.2421C90.3429 49.8189 87.0082 46.3132 82.6073 45.5388C78.2791 44.7766 73.8894 46.9368 71.8712 50.8214C71.3336 51.8562 70.9592 52.0216 69.8406 51.721C67.04 50.9678 64.301 52.9726 64.2071 55.8704C64.1914 56.352 64.3054 56.8471 64.4161 57.3232C64.6262 58.2295 64.5133 58.6117 63.7411 59.1179C61.9329 60.3025 60.8187 61.9531 60.4935 64.0843C59.8643 68.2058 62.9264 72.3641 67.0378 72.7072C67.3742 72.7351 67.7139 72.7161 68.0514 72.7173C70.263 72.7173 72.4746 72.7139 74.6862 72.7217C75.331 72.724 75.8138 73.1408 75.9077 73.732C75.996 74.2896 75.6708 74.864 75.1299 75.0339C74.9075 75.1032 74.6583 75.1088 74.4225 75.1088C72.0555 75.1144 69.6886 75.1222 67.3228 75.1043C66.7919 75.0998 66.2522 75.0395 65.7325 74.93C62.8984 74.3343 60.8534 72.6524 59.3883 70.2151C58.6619 69.007 58.2294 67.6883 58.0729 66.2825C58.064 66.2009 58.0238 66.1238 57.998 66.0444C57.998 65.5091 57.998 64.9738 57.998 64.4385L58.0003 64.4374Z" fill="#9DA3A4"/>
<path d="M78.3033 61.9893C78.2139 62.1156 78.1413 62.2586 78.034 62.3659C76.7634 63.6443 75.4905 64.9206 74.212 66.1912C73.651 66.7489 72.9581 66.779 72.4519 66.2851C71.9445 65.7911 71.9702 65.0513 72.5312 64.4881C74.5897 62.424 76.6505 60.3621 78.7146 58.3048C79.3147 57.7069 79.9685 57.7013 80.5675 58.298C82.6427 60.3644 84.7146 62.4363 86.781 64.5116C87.3218 65.0547 87.3386 65.7934 86.8469 66.2806C86.3474 66.7757 85.64 66.75 85.0834 66.1968C83.805 64.9262 82.5321 63.6499 81.2614 62.3715C81.1542 62.2631 81.0793 62.1223 80.9888 61.996C80.9396 62.0194 80.8904 62.0429 80.8401 62.0664V62.5369C80.8401 68.8174 80.8401 75.098 80.8401 81.3785C80.8401 81.5618 80.8446 81.7451 80.8267 81.9272C80.7675 82.5497 80.2434 83.0113 79.6231 82.9978C79.0174 82.9844 78.5157 82.5285 78.4587 81.9272C78.443 81.7596 78.4486 81.5898 78.4486 81.421C78.4486 75.1259 78.4486 68.832 78.4486 62.5369V62.082C78.4005 62.0507 78.3514 62.0194 78.3033 61.987V61.9893Z" fill="#9DA3A4"/>
</g>
<mask id="mask0_621_9233" style="mask-type:alpha" maskUnits="userSpaceOnUse" x="0" y="0" width="160" height="160">
<rect x="0.6" y="0.6" width="158.8" height="158.8" rx="79.4" fill="white" stroke="#F1EDEE" stroke-width="1.2" stroke-linecap="round" stroke-dasharray="8 8"/>
</mask>
<g mask="url(#mask0_621_9233)">
<path opacity="0.1" d="M0 112H160C160 138.51 138.51 160 112 160H48C21.4903 160 0 138.51 0 112Z" fill="#1CA2B7"/>
</g>
<path d="M64.428 141.108C63.252 141.108 62.376 140.812 61.8 140.22C61.232 139.628 60.948 138.752 60.948 137.592V132.54H62.196V137.568C62.196 138.384 62.372 139 62.724 139.416C63.084 139.824 63.652 140.028 64.428 140.028C65.164 140.028 65.72 139.824 66.096 139.416C66.472 139 66.66 138.384 66.66 137.568V132.54H67.884V137.592C67.884 138.752 67.592 139.628 67.008 140.22C66.424 140.812 65.564 141.108 64.428 141.108ZM69.7122 143.592V136.404C69.7122 136.172 69.7002 135.936 69.6762 135.696C69.6602 135.448 69.6402 135.2 69.6162 134.952H70.7922L70.9122 136.32H70.7802C70.9082 135.864 71.1642 135.504 71.5482 135.24C71.9402 134.976 72.4042 134.844 72.9402 134.844C73.4762 134.844 73.9442 134.972 74.3442 135.228C74.7442 135.476 75.0522 135.832 75.2682 136.296C75.4922 136.76 75.6042 137.32 75.6042 137.976C75.6042 138.624 75.4922 139.184 75.2682 139.656C75.0522 140.128 74.7442 140.488 74.3442 140.736C73.9442 140.984 73.4762 141.108 72.9402 141.108C72.4122 141.108 71.9522 140.98 71.5602 140.724C71.1762 140.46 70.9202 140.104 70.7922 139.656H70.9242V143.592H69.7122ZM72.6402 140.16C73.1682 140.16 73.5882 139.976 73.9002 139.608C74.2202 139.24 74.3802 138.696 74.3802 137.976C74.3802 137.256 74.2202 136.716 73.9002 136.356C73.5882 135.988 73.1682 135.804 72.6402 135.804C72.1122 135.804 71.6882 135.988 71.3682 136.356C71.0562 136.716 70.9002 137.256 70.9002 137.976C70.9002 138.696 71.0562 139.24 71.3682 139.608C71.6882 139.976 72.1122 140.16 72.6402 140.16ZM77.0247 141V132.168H78.2367V141H77.0247ZM82.605 141.108C82.005 141.108 81.485 140.984 81.045 140.736C80.605 140.48 80.265 140.12 80.025 139.656C79.785 139.184 79.665 138.624 79.665 137.976C79.665 137.328 79.785 136.772 80.025 136.308C80.265 135.836 80.605 135.476 81.045 135.228C81.485 134.972 82.005 134.844 82.605 134.844C83.205 134.844 83.725 134.972 84.165 135.228C84.613 135.476 84.957 135.836 85.197 136.308C85.445 136.772 85.569 137.328 85.569 137.976C85.569 138.624 85.445 139.184 85.197 139.656C84.957 140.12 84.613 140.48 84.165 140.736C83.725 140.984 83.205 141.108 82.605 141.108ZM82.605 140.16C83.133 140.16 83.553 139.976 83.865 139.608C84.177 139.24 84.333 138.696 84.333 137.976C84.333 137.256 84.177 136.716 83.865 136.356C83.553 135.988 83.133 135.804 82.605 135.804C82.085 135.804 81.669 135.988 81.357 136.356C81.045 136.716 80.889 137.256 80.889 137.976C80.889 138.696 81.041 139.24 81.345 139.608C81.657 139.976 82.077 140.16 82.605 140.16ZM89.3017 141.108C88.7657 141.108 88.2977 140.984 87.8977 140.736C87.4977 140.488 87.1857 140.128 86.9617 139.656C86.7457 139.184 86.6377 138.624 86.6377 137.976C86.6377 137.32 86.7457 136.76 86.9617 136.296C87.1857 135.832 87.4977 135.476 87.8977 135.228C88.2977 134.972 88.7657 134.844 89.3017 134.844C89.8297 134.844 90.2897 134.976 90.6817 135.24C91.0737 135.504 91.3337 135.864 91.4617 136.32H91.3297L91.4497 134.952H92.6257C92.6017 135.2 92.5777 135.448 92.5537 135.696C92.5377 135.936 92.5297 136.172 92.5297 136.404V141H91.3177V139.656H91.4497C91.3217 140.104 91.0577 140.46 90.6577 140.724C90.2657 140.98 89.8137 141.108 89.3017 141.108ZM89.6017 140.16C90.1217 140.16 90.5377 139.976 90.8497 139.608C91.1697 139.24 91.3297 138.696 91.3297 137.976C91.3297 137.256 91.1697 136.716 90.8497 136.356C90.5377 135.988 90.1217 135.804 89.6017 135.804C89.0737 135.804 88.6497 135.988 88.3297 136.356C88.0177 136.716 87.8617 137.256 87.8617 137.976C87.8617 138.696 88.0177 139.24 88.3297 139.608C88.6417 139.976 89.0657 140.16 89.6017 140.16ZM96.6142 141.108C96.0862 141.108 95.6182 140.984 95.2102 140.736C94.8102 140.488 94.4982 140.128 94.2742 139.656C94.0582 139.184 93.9502 138.624 93.9502 137.976C93.9502 137.32 94.0582 136.76 94.2742 136.296C94.4982 135.832 94.8102 135.476 95.2102 135.228C95.6182 134.972 96.0862 134.844 96.6142 134.844C97.1342 134.844 97.5902 134.976 97.9822 135.24C98.3822 135.496 98.6462 135.848 98.7742 136.296H98.6302V132.168H99.8422V141H98.6422V139.632H98.7862C98.6502 140.088 98.3862 140.448 97.9942 140.712C97.6022 140.976 97.1422 141.108 96.6142 141.108ZM96.9142 140.16C97.4342 140.16 97.8542 139.976 98.1742 139.608C98.4942 139.24 98.6542 138.696 98.6542 137.976C98.6542 137.256 98.4942 136.716 98.1742 136.356C97.8542 135.988 97.4342 135.804 96.9142 135.804C96.3862 135.804 95.9622 135.988 95.6422 136.356C95.3302 136.716 95.1742 137.256 95.1742 137.976C95.1742 138.696 95.3302 139.24 95.6422 139.608C95.9622 139.976 96.3862 140.16 96.9142 140.16Z" fill="#1CA2B7"/>
<defs>
<clipPath id="clip0_621_9233">
<rect width="43.2934" height="40" fill="white" transform="translate(58 43)"/>
</clipPath>
</defs>
</svg>
