<svg width="103" height="20" viewBox="0 0 103 20" fill="none" xmlns="http://www.w3.org/2000/svg">
<path d="M9.99967 10.4881L13.5352 14.0236L12.3567 15.2021L10.833 13.6791V18.3333H9.16634V13.6775L7.64265 15.2021L6.46414 14.0236L9.99967 10.4881ZM9.99967 1.66663C12.9942 1.66663 15.4617 3.92297 15.7948 6.82825C17.7378 7.35958 19.1663 9.13796 19.1663 11.25C19.1663 13.6406 17.336 15.6038 15.0002 15.8146L15.0004 14.137C16.4135 13.9345 17.4997 12.719 17.4997 11.25C17.4997 9.63913 16.1938 8.33329 14.583 8.33329C14.409 8.33329 14.2386 8.34854 14.0736 8.37829C14.1343 8.09513 14.1663 7.80128 14.1663 7.49996C14.1663 5.19878 12.3008 3.33329 9.99967 3.33329C7.69849 3.33329 5.83301 5.19878 5.83301 7.49996C5.83301 7.80128 5.86499 8.09513 5.92638 8.37771C5.76077 8.34854 5.59033 8.33329 5.41634 8.33329C3.80551 8.33329 2.49967 9.63913 2.49967 11.25C2.49967 12.6669 3.51002 13.8478 4.84956 14.1116L4.99972 14.1371L5 15.8146C2.66381 15.6043 0.833008 13.641 0.833008 11.25C0.833008 9.13796 2.26154 7.35958 4.20507 6.82838C4.53768 3.92297 7.00518 1.66663 9.99967 1.66663Z" fill="#9DA3A4"/>
<path d="M34.138 15.126C32.7847 15.126 31.7767 14.7853 31.114 14.104C30.4607 13.4133 30.134 12.4007 30.134 11.066V5.13H31.45V11.024C31.45 12.004 31.6647 12.7413 32.094 13.236C32.5233 13.7307 33.2047 13.978 34.138 13.978C35.034 13.978 35.706 13.7307 36.154 13.236C36.6113 12.7413 36.84 12.004 36.84 11.024V5.13H38.128V11.066C38.128 12.4007 37.792 13.4133 37.12 14.104C36.448 14.7853 35.454 15.126 34.138 15.126ZM40.3316 18.024V9.624C40.3316 9.35333 40.3222 9.078 40.3036 8.798C40.2849 8.518 40.2569 8.238 40.2196 7.958H41.4516L41.6056 9.582H41.4516C41.5916 9.04067 41.8902 8.616 42.3476 8.308C42.8049 7.99067 43.3509 7.832 43.9856 7.832C44.6109 7.832 45.1569 7.97667 45.6236 8.266C46.0902 8.55533 46.4496 8.97533 46.7016 9.526C46.9629 10.0673 47.0936 10.716 47.0936 11.472C47.0936 12.228 46.9629 12.8813 46.7016 13.432C46.4496 13.9827 46.0902 14.4027 45.6236 14.692C45.1569 14.9813 44.6109 15.126 43.9856 15.126C43.3602 15.126 42.8189 14.972 42.3616 14.664C41.9136 14.3467 41.6102 13.922 41.4516 13.39H41.6056V18.024H40.3316ZM43.6916 14.118C44.3356 14.118 44.8489 13.894 45.2316 13.446C45.6142 12.998 45.8056 12.34 45.8056 11.472C45.8056 10.604 45.6142 9.95067 45.2316 9.512C44.8489 9.07333 44.3356 8.854 43.6916 8.854C43.0476 8.854 42.5342 9.07333 42.1516 9.512C41.7782 9.95067 41.5916 10.604 41.5916 11.472C41.5916 12.34 41.7782 12.998 42.1516 13.446C42.5342 13.894 43.0476 14.118 43.6916 14.118ZM48.8081 15V4.696H50.0821V15H48.8081ZM55.1804 15.126C54.4898 15.126 53.8924 14.9813 53.3884 14.692C52.8844 14.3933 52.4924 13.9733 52.2124 13.432C51.9324 12.8813 51.7924 12.228 51.7924 11.472C51.7924 10.7253 51.9324 10.0813 52.2124 9.54C52.4924 8.98933 52.8844 8.56933 53.3884 8.28C53.8924 7.98133 54.4898 7.832 55.1804 7.832C55.8711 7.832 56.4684 7.98133 56.9724 8.28C57.4858 8.56933 57.8778 8.98933 58.1484 9.54C58.4284 10.0813 58.5684 10.7253 58.5684 11.472C58.5684 12.228 58.4284 12.8813 58.1484 13.432C57.8778 13.9733 57.4858 14.3933 56.9724 14.692C56.4684 14.9813 55.8711 15.126 55.1804 15.126ZM55.1804 14.118C55.8151 14.118 56.3238 13.894 56.7064 13.446C57.0891 12.998 57.2804 12.34 57.2804 11.472C57.2804 10.604 57.0891 9.95067 56.7064 9.512C56.3238 9.07333 55.8151 8.854 55.1804 8.854C54.5364 8.854 54.0231 9.07333 53.6404 9.512C53.2671 9.95067 53.0804 10.604 53.0804 11.472C53.0804 12.34 53.2671 12.998 53.6404 13.446C54.0231 13.894 54.5364 14.118 55.1804 14.118ZM62.9668 15.126C62.3508 15.126 61.8095 14.9813 61.3428 14.692C60.8762 14.4027 60.5122 13.9827 60.2508 13.432C59.9895 12.8813 59.8588 12.228 59.8588 11.472C59.8588 10.716 59.9895 10.0673 60.2508 9.526C60.5122 8.97533 60.8762 8.55533 61.3428 8.266C61.8095 7.97667 62.3508 7.832 62.9668 7.832C63.5922 7.832 64.1335 7.99067 64.5908 8.308C65.0575 8.616 65.3655 9.04067 65.5148 9.582H65.3468L65.5008 7.958H66.7328C66.7048 8.238 66.6768 8.518 66.6488 8.798C66.6302 9.078 66.6208 9.35333 66.6208 9.624V15H65.3468V13.39H65.5008C65.3515 13.922 65.0435 14.3467 64.5768 14.664C64.1195 14.972 63.5828 15.126 62.9668 15.126ZM63.2608 14.118C63.8955 14.118 64.4042 13.894 64.7868 13.446C65.1695 12.998 65.3608 12.34 65.3608 11.472C65.3608 10.604 65.1695 9.95067 64.7868 9.512C64.4042 9.07333 63.8955 8.854 63.2608 8.854C62.6262 8.854 62.1128 9.07333 61.7208 9.512C61.3382 9.95067 61.1468 10.604 61.1468 11.472C61.1468 12.34 61.3382 12.998 61.7208 13.446C62.1035 13.894 62.6168 14.118 63.2608 14.118ZM71.4434 15.126C70.8274 15.126 70.2861 14.9813 69.8194 14.692C69.3527 14.4027 68.9887 13.9827 68.7274 13.432C68.4661 12.8813 68.3354 12.228 68.3354 11.472C68.3354 10.716 68.4661 10.0673 68.7274 9.526C68.9887 8.97533 69.3527 8.55533 69.8194 8.266C70.2861 7.97667 70.8274 7.832 71.4434 7.832C72.0594 7.832 72.5961 7.986 73.0534 8.294C73.5201 8.602 73.8327 9.02667 73.9914 9.568H73.8234V4.696H75.0974V15H73.8374V13.362H73.9914C73.8421 13.9127 73.5341 14.3467 73.0674 14.664C72.6101 14.972 72.0687 15.126 71.4434 15.126ZM71.7374 14.118C72.3721 14.118 72.8807 13.894 73.2634 13.446C73.6554 12.998 73.8514 12.34 73.8514 11.472C73.8514 10.604 73.6554 9.95067 73.2634 9.512C72.8807 9.07333 72.3721 8.854 71.7374 8.854C71.1027 8.854 70.5894 9.07333 70.1974 9.512C69.8147 9.95067 69.6234 10.604 69.6234 11.472C69.6234 12.34 69.8147 12.998 70.1974 13.446C70.5894 13.894 71.1027 14.118 71.7374 14.118ZM81.0634 15V5.13H87.3074V6.194H82.3654V9.498H86.9854V10.562H82.3654V15H81.0634ZM88.8394 15V7.958H90.1134V15H88.8394ZM88.7274 6.418V5.046H90.2394V6.418H88.7274ZM92.2437 15V4.696H93.5177V15H92.2437ZM98.854 15.126C97.734 15.126 96.8473 14.804 96.194 14.16C95.55 13.516 95.228 12.6293 95.228 11.5C95.228 10.7533 95.368 10.1093 95.648 9.568C95.9373 9.01733 96.334 8.59267 96.838 8.294C97.342 7.986 97.93 7.832 98.602 7.832C99.246 7.832 99.792 7.972 100.24 8.252C100.688 8.52267 101.029 8.91 101.262 9.414C101.495 9.918 101.612 10.5153 101.612 11.206V11.626H96.222V10.87H100.744L100.506 11.052C100.506 10.324 100.343 9.75933 100.016 9.358C99.6987 8.95667 99.2273 8.756 98.602 8.756C97.9207 8.756 97.3933 8.994 97.02 9.47C96.6467 9.93667 96.46 10.576 96.46 11.388V11.514C96.46 12.3727 96.67 13.0213 97.09 13.46C97.5193 13.8987 98.112 14.118 98.868 14.118C99.288 14.118 99.68 14.0573 100.044 13.936C100.408 13.8147 100.758 13.614 101.094 13.334L101.514 14.216C101.197 14.5053 100.8 14.7293 100.324 14.888C99.8573 15.0467 99.3673 15.126 98.854 15.126Z" fill="#9DA3A4"/>
</svg>
