<svg width="24" height="25" viewBox="0 0 24 25" fill="none" xmlns="http://www.w3.org/2000/svg">
<g clip-path="url(#clip0_504_6169)">
<path d="M4.11111 5.31719H6.22222V8.46719H16.7778V5.31719H18.8889V13.5672H21V5.31719C21 4.16219 20.05 3.21719 18.8889 3.21719H14.4767C14.0333 1.99919 12.8722 1.11719 11.5 1.11719C10.1278 1.11719 8.96667 1.99919 8.52333 3.21719H4.11111C2.95 3.21719 2 4.16219 2 5.31719V20.0172C2 21.1722 2.95 22.1172 4.11111 22.1172H14.4444V20.0172H4.11111V5.31719ZM11.5 3.21719C12.0806 3.21719 12.5556 3.68969 12.5556 4.26719C12.5556 4.84469 12.0806 5.31719 11.5 5.31719C10.9194 5.31719 10.4444 4.84469 10.4444 4.26719C10.4444 3.68969 10.9194 3.21719 11.5 3.21719Z" fill="#8A8A8A"/>
<circle cx="18" cy="18.1465" r="6" fill="white"/>
<path d="M21.0854 18.1465C21.0854 18.0545 21.0813 17.9665 21.073 17.8745L21.8382 17.3105C22.0028 17.1905 22.048 16.9665 21.9452 16.7905L21.1759 15.4985C21.073 15.3225 20.8509 15.2505 20.6616 15.3305L19.7772 15.6945C19.625 15.5905 19.4645 15.4985 19.2959 15.4225L19.1766 14.4985C19.1519 14.2985 18.975 14.1465 18.7693 14.1465H17.2348C17.025 14.1465 16.8481 14.2985 16.8234 14.4985L16.7041 15.4225C16.5355 15.4985 16.375 15.5905 16.2228 15.6945L15.3384 15.3305C15.1491 15.2505 14.927 15.3225 14.8241 15.4985L14.0548 16.7945C13.952 16.9705 13.9972 17.1905 14.1618 17.3145L14.927 17.8785C14.9187 17.9665 14.9146 18.0545 14.9146 18.1465C14.9146 18.2385 14.9187 18.3265 14.927 18.4185L14.1618 18.9825C13.9972 19.1025 13.952 19.3265 14.0548 19.5025L14.8241 20.7945C14.927 20.9705 15.1491 21.0425 15.3384 20.9625L16.2228 20.5985C16.375 20.7025 16.5355 20.7945 16.7041 20.8705L16.8234 21.7945C16.8481 21.9945 17.025 22.1465 17.2307 22.1465H18.7652C18.9709 22.1465 19.1478 21.9945 19.1724 21.7945L19.2917 20.8705C19.4604 20.7945 19.6208 20.7025 19.7731 20.5985L20.6575 20.9625C20.8468 21.0425 21.0689 20.9705 21.1718 20.7945L21.941 19.5025C22.0439 19.3265 21.9986 19.1065 21.8341 18.9825L21.0689 18.4185C21.0813 18.3265 21.0854 18.2385 21.0854 18.1465ZM18.0165 19.5465C17.2225 19.5465 16.5766 18.9185 16.5766 18.1465C16.5766 17.3745 17.2225 16.7465 18.0165 16.7465C18.8104 16.7465 19.4563 17.3745 19.4563 18.1465C19.4563 18.9185 18.8104 19.5465 18.0165 19.5465Z" stroke="#8A8A8A" stroke-width="1.3"/>
</g>
<defs>
<clipPath id="clip0_504_6169">
<rect width="24" height="24" fill="white" transform="translate(0 0.117188)"/>
</clipPath>
</defs>
</svg>
