<svg width="24" height="24" viewBox="0 0 24 24" fill="none" xmlns="http://www.w3.org/2000/svg">
<path d="M2 21C2 16.5817 5.58172 13 10 13C14.4183 13 18 16.5817 18 21H16C16 17.6863 13.3137 15 10 15C6.68629 15 4 17.6863 4 21H2ZM10 12C6.685 12 4 9.315 4 6C4 2.685 6.685 0 10 0C13.315 0 16 2.685 16 6C16 9.315 13.315 12 10 12ZM10 10C12.21 10 14 8.21 14 6C14 3.79 12.21 2 10 2C7.79 2 6 3.79 6 6C6 8.21 7.79 10 10 10Z" fill="#8A8A8A"/>
<circle cx="16" cy="17.0703" r="6" fill="white"/>
<path d="M21.1 17.0234C21.1 14.2068 18.8166 11.9234 16 11.9234C13.1833 11.9234 10.9 14.2068 10.9 17.0234C10.9 19.8401 13.1833 22.1234 16 22.1234C18.8166 22.1234 21.1 19.8401 21.1 17.0234ZM12.1459 17.6239L13.9031 17.6235C13.9527 18.4275 14.596 19.0708 15.4 19.1204V20.8776C13.7268 20.6193 12.4044 19.2971 12.1459 17.6239ZM16.6 19.1204C17.404 19.0708 18.0473 18.4275 18.0969 17.6235L19.8541 17.6239C19.5956 19.2969 18.2735 20.619 16.6005 20.8775L16.6 19.1204ZM15.1 17.5234V17.1234H16.9V17.5234C16.9 17.7444 16.7209 17.9234 16.5 17.9234H15.5C15.2791 17.9234 15.1 17.7444 15.1 17.5234ZM16 13.1234C17.9498 13.1234 19.5656 14.5544 19.8541 16.4234H18.0917C18.0441 16.1397 17.7973 15.9234 17.5 15.9234H14.5C14.2027 15.9234 13.9559 16.1397 13.9083 16.4234H12.1459C12.4344 14.5544 14.0502 13.1234 16 13.1234Z" fill="#8A8A8A" stroke="#8A8A8A" stroke-width="0.2"/>
</svg>
