<svg width="24" height="25" viewBox="0 0 24 25" fill="none" xmlns="http://www.w3.org/2000/svg">
<path d="M15.7727 5.21715C19.0729 7.2097 20.3931 11.4181 19.0012 15.0144L17.9117 14.3565L17.7539 14.2613L17.7601 14.4455L17.9179 19.1588L17.9233 19.3224L18.0664 19.2429L22.0486 17.0291L22.1994 16.9453L22.0517 16.8561L20.8433 16.1265C22.809 11.4728 21.1457 5.91855 16.8321 3.31418C13.7479 1.45206 10.0898 1.57 7.20463 3.29024L7.12191 3.33956L7.16809 3.42407L8.11687 5.16059L8.16666 5.25171L8.25584 5.19854C10.5092 3.85494 13.3646 3.76323 15.7727 5.21715ZM8.22734 18.9C4.92714 16.9074 3.60691 12.6991 4.99876 9.1028L6.0883 9.76062L6.2461 9.8559L6.23993 9.67167L6.08212 4.95836L6.07664 4.79477L5.93358 4.8743L1.95141 7.08803L1.80061 7.17186L1.94831 7.26104L3.15675 7.99066C1.19103 12.6444 2.85435 18.1986 7.16787 20.803L7.21956 20.7174L7.16788 20.803C10.252 22.6651 13.9101 22.5472 16.7952 20.827L16.8779 20.7777L16.8318 20.6931L15.8829 18.9567L15.8331 18.8656L15.744 18.9188C13.4907 20.2622 10.6354 20.354 8.22734 18.9L8.17565 18.9856L8.22734 18.9ZM8.65369 13.9582H8.55369V14.0582V16.0579V16.1579H8.65369H10.9439V17.0577V17.1577H11.0439H12.9561H13.0561V17.0577V16.1579H13.9122C15.2916 16.1579 16.4024 14.9898 16.4024 13.5583C16.4024 12.1269 15.2916 10.9587 13.9122 10.9587H10.0878C9.8832 10.9587 9.70978 10.784 9.70978 10.5588C9.70978 10.3337 9.88321 10.1589 10.0878 10.1589H15.3463H15.4463V10.0589V8.05927V7.95927H15.3463H13.0561V7.05943V6.95943H12.9561H11.0439H10.9439V7.05943V7.95927H10.0878C8.70835 7.95927 7.59761 9.12739 7.59761 10.5588C7.59761 11.9903 8.70835 13.1584 10.0878 13.1584H13.9122C14.1168 13.1584 14.2902 13.3332 14.2902 13.5583C14.2902 13.7835 14.1168 13.9582 13.9122 13.9582H8.65369Z" fill="#8A8A8A" stroke="#8A8A8A" stroke-width="0.2"/>
</svg>
