<svg width="25" height="25" viewBox="0 0 25 25" fill="none" xmlns="http://www.w3.org/2000/svg">
<path d="M4 22C4 17.5817 7.58172 14 12 14C16.4183 14 20 17.5817 20 22H18C18 18.6863 15.3137 16 12 16C8.68629 16 6 18.6863 6 22H4ZM12 13C8.685 13 6 10.315 6 7C6 3.685 8.685 1 12 1C15.315 1 18 3.685 18 7C18 10.315 15.315 13 12 13ZM12 11C14.21 11 16 9.21 16 7C16 4.79 14.21 3 12 3C9.79 3 8 4.79 8 7C8 9.21 9.79 11 12 11Z" fill="#8A8A8A"/>
<circle cx="19" cy="18.1172" r="6" fill="white"/>
<path d="M22.0854 18.1172C22.0854 18.0252 22.0813 17.9372 22.073 17.8452L22.8382 17.2812C23.0028 17.1612 23.048 16.9372 22.9452 16.7612L22.1759 15.4692C22.073 15.2932 21.8509 15.2212 21.6616 15.3012L20.7772 15.6652C20.625 15.5612 20.4645 15.4692 20.2959 15.3932L20.1766 14.4692C20.1519 14.2692 19.975 14.1172 19.7693 14.1172H18.2348C18.025 14.1172 17.8481 14.2692 17.8234 14.4692L17.7041 15.3932C17.5355 15.4692 17.375 15.5612 17.2228 15.6652L16.3384 15.3012C16.1491 15.2212 15.927 15.2932 15.8241 15.4692L15.0548 16.7652C14.952 16.9412 14.9972 17.1612 15.1618 17.2852L15.927 17.8492C15.9187 17.9372 15.9146 18.0252 15.9146 18.1172C15.9146 18.2092 15.9187 18.2972 15.927 18.3892L15.1618 18.9532C14.9972 19.0732 14.952 19.2972 15.0548 19.4732L15.8241 20.7652C15.927 20.9412 16.1491 21.0132 16.3384 20.9332L17.2228 20.5692C17.375 20.6732 17.5355 20.7652 17.7041 20.8412L17.8234 21.7652C17.8481 21.9652 18.025 22.1172 18.2307 22.1172H19.7652C19.9709 22.1172 20.1478 21.9652 20.1724 21.7652L20.2917 20.8412C20.4604 20.7652 20.6208 20.6732 20.7731 20.5692L21.6575 20.9332C21.8468 21.0132 22.0689 20.9412 22.1718 20.7652L22.941 19.4732C23.0439 19.2972 22.9986 19.0772 22.8341 18.9532L22.0689 18.3892C22.0813 18.2972 22.0854 18.2092 22.0854 18.1172ZM19.0165 19.5172C18.2225 19.5172 17.5766 18.8892 17.5766 18.1172C17.5766 17.3452 18.2225 16.7172 19.0165 16.7172C19.8104 16.7172 20.4563 17.3452 20.4563 18.1172C20.4563 18.8892 19.8104 19.5172 19.0165 19.5172Z" stroke="#8A8A8A" stroke-width="1.3"/>
</svg>
