<svg width="24" height="25" viewBox="0 0 24 25" fill="none" xmlns="http://www.w3.org/2000/svg">
<path d="M2 12.117C2 11.2525 2.1097 10.4136 2.31595 9.6135C3.40622 9.67002 4.48848 9.12734 5.0718 8.11701C5.65467 7.10744 5.58406 5.8999 4.99121 4.9842C6.18354 3.81248 7.66832 2.93741 9.32603 2.47852C9.8222 3.45104 10.8333 4.11701 12 4.11701C13.1667 4.11701 14.1778 3.45104 14.674 2.47852C16.3317 2.93741 17.8165 3.81248 19.0088 4.9842C18.4159 5.8999 18.3453 7.10744 18.9282 8.11701C19.5115 9.12734 20.5938 9.67002 21.6841 9.6135C21.8903 10.4136 22 11.2525 22 12.117C22 12.9815 21.8903 13.8204 21.6841 14.6205C20.5938 14.564 19.5115 15.1067 18.9282 16.117C18.3453 17.1266 18.4159 18.3341 19.0088 19.2498C17.8165 20.4215 16.3317 21.2966 14.674 21.7555C14.1778 20.783 13.1667 20.117 12 20.117C10.8333 20.117 9.8222 20.783 9.32603 21.7555C7.66832 21.2966 6.18354 20.4215 4.99121 19.2498C5.58406 18.3341 5.65467 17.1266 5.0718 16.117C4.48848 15.1067 3.40622 14.564 2.31595 14.6205C2.1097 13.8204 2 12.9815 2 12.117ZM6.80385 15.117C7.43395 16.2084 7.61458 17.4631 7.36818 18.6408C7.77597 18.931 8.21005 19.1824 8.66489 19.3913C9.56176 18.5884 10.7392 18.117 12 18.117C13.2608 18.117 14.4382 18.5884 15.3351 19.3913C15.7899 19.1824 16.224 18.931 16.6318 18.6408C16.3854 17.4631 16.566 16.2084 17.1962 15.117C17.8262 14.0257 18.8225 13.242 19.9655 12.8665C19.9884 12.6187 20 12.3688 20 12.117C20 11.8653 19.9884 11.6153 19.9655 11.3676C18.8225 10.9921 17.8262 10.2084 17.1962 9.11701C16.566 8.02564 16.3854 6.77097 16.6318 5.59324C16.224 5.30307 15.7899 5.05166 15.3351 4.84271C14.4382 5.64563 13.2608 6.11701 12 6.11701C10.7392 6.11701 9.56176 5.64563 8.66489 4.84271C8.21005 5.05166 7.77597 5.30307 7.36818 5.59324C7.61458 6.77097 7.43395 8.02564 6.80385 9.11701C6.17376 10.2084 5.17754 10.9921 4.03451 11.3676C4.01157 11.6153 4 11.8653 4 12.117C4 12.3688 4.01157 12.6187 4.03451 12.8665C5.17754 13.242 6.17376 14.0257 6.80385 15.117ZM12 15.117C10.3431 15.117 9 13.7739 9 12.117C9 10.4602 10.3431 9.11701 12 9.11701C13.6569 9.11701 15 10.4602 15 12.117C15 13.7739 13.6569 15.117 12 15.117ZM12 13.117C12.5523 13.117 13 12.6693 13 12.117C13 11.5647 12.5523 11.117 12 11.117C11.4477 11.117 11 11.5647 11 12.117C11 12.6693 11.4477 13.117 12 13.117Z" fill="#8A8A8A"/>
</svg>
