<svg width="24" height="25" viewBox="0 0 24 25" fill="none" xmlns="http://www.w3.org/2000/svg">
<path d="M14 14.3106V16.4C13.3744 16.1789 12.7013 16.0586 12 16.0586C8.68629 16.0586 6 18.7449 6 22.0586H4C4 17.6403 7.58172 14.0586 12 14.0586C12.6906 14.0586 13.3608 14.1461 14 14.3106ZM12 13.0586C8.685 13.0586 6 10.3736 6 7.05859C6 3.74359 8.685 1.05859 12 1.05859C15.315 1.05859 18 3.74359 18 7.05859C18 10.3736 15.315 13.0586 12 13.0586ZM12 11.0586C14.21 11.0586 16 9.26859 16 7.05859C16 4.84859 14.21 3.05859 12 3.05859C9.79 3.05859 8 4.84859 8 7.05859C8 9.26859 9.79 11.0586 12 11.0586ZM18 17.0586V14.0586H20V17.0586H23V19.0586H20V22.0586H18V19.0586H15V17.0586H18Z" fill="#8A8A8A"/>
</svg>
