<svg width="24" height="25" viewBox="0 0 24 25" fill="none" xmlns="http://www.w3.org/2000/svg">
<g clip-path="url(#clip0_504_6141)">
<path d="M19 22.0586H5C3.34315 22.0586 2 20.7155 2 19.0586V3.05859C2 2.50631 2.44772 2.05859 3 2.05859H17C17.5523 2.05859 18 2.50631 18 3.05859V15.0586H22V19.0586C22 20.7155 20.6569 22.0586 19 22.0586ZM18 17.0586V19.0586C18 19.6109 18.4477 20.0586 19 20.0586C19.5523 20.0586 20 19.6109 20 19.0586V17.0586H18ZM16 20.0586V4.05859H4V19.0586C4 19.6109 4.44772 20.0586 5 20.0586H16ZM6 7.05859H14V9.05859H6V7.05859ZM6 11.0586H14V13.0586H6V11.0586ZM6 15.0586H11V17.0586H6V15.0586Z" fill="#8A8A8A"/>
<circle cx="6" cy="19.0879" r="6" fill="white"/>
<path d="M7.88633 15.6555C9.53645 16.6517 10.1966 18.7559 9.50062 20.5541L8.95587 20.2251L8.87697 20.1775L8.88005 20.2696L8.95893 22.6263L8.96167 22.7081L9.03319 22.6683L11.0243 21.5614L11.0997 21.5195L11.0258 21.4749L10.4216 21.1101C11.4045 18.7833 10.5729 16.0061 8.41606 14.704C6.87397 13.7729 5.04488 13.8319 3.60232 14.692L3.56096 14.7167L3.58404 14.7589L4.05844 15.6272L4.08333 15.6727L4.12792 15.6461C5.25462 14.9743 6.68229 14.9285 7.88633 15.6555ZM4.11367 22.4969C2.46357 21.5006 1.80345 19.3964 2.49938 17.5983L3.04415 17.9272L3.12305 17.9748L3.11996 17.8827L3.04106 15.5261L3.03832 15.4443L2.96679 15.484L0.975706 16.5909L0.900306 16.6328L0.974157 16.6774L1.57838 17.0422C0.595513 19.3691 1.42717 22.1462 3.58394 23.4484C5.12602 24.3794 6.95506 24.3205 8.39761 23.4604L8.43897 23.4357L8.41588 23.3934L7.94147 22.5252L7.91657 22.4797L7.87199 22.5063C6.74533 23.178 5.3177 23.2239 4.11367 22.4969L4.08782 22.5397L4.11367 22.4969ZM4.32685 20.026H4.27685V20.076V21.0758V21.1258H4.32685H5.47195V21.5757V21.6257H5.52195H6.47804H6.52804V21.5757V21.1258H6.95608C7.64582 21.1258 8.20119 20.5418 8.20119 19.826C8.20119 19.1103 7.64582 18.5262 6.95608 18.5262H5.04391C4.9416 18.5262 4.85489 18.4389 4.85489 18.3263C4.85489 18.2137 4.94161 18.1263 5.04391 18.1263H7.67315H7.72315V18.0763V17.0765V17.0265H7.67315H6.52804V16.5766V16.5266H6.47804H5.52195H5.47195V16.5766V17.0265H5.04391C4.35417 17.0265 3.7988 17.6106 3.7988 18.3263C3.7988 19.042 4.35417 19.6261 5.04391 19.6261H6.95608C7.05841 19.6261 7.14511 19.7135 7.14511 19.826C7.14511 19.9386 7.05842 20.026 6.95608 20.026H4.32685Z" fill="#8A8A8A" stroke="#8A8A8A" stroke-width="0.1"/>
</g>
<defs>
<clipPath id="clip0_504_6141">
<rect width="24" height="24" fill="white" transform="translate(0 0.0585938)"/>
</clipPath>
</defs>
</svg>
