<svg width="52" height="52" viewBox="0 0 52 52" fill="none" xmlns="http://www.w3.org/2000/svg">
<rect width="52" height="52" rx="8" fill="#EA4646" fill-opacity="0.15"/>
<path fill-rule="evenodd" clip-rule="evenodd" d="M24.9958 13.9922C31.0739 13.9922 36.0013 18.9195 36.0013 24.9977C36.0013 25.3713 35.9827 25.7406 35.9463 26.1046C34.8556 25.4852 33.5945 25.1315 32.2509 25.1315C28.1088 25.1315 24.7509 28.4927 24.7509 32.6389C24.7509 32.8045 24.7563 32.9689 24.7668 33.1318C24.7557 33.2994 24.75 33.4685 24.75 33.6389C24.75 34.4647 24.8832 35.2593 25.1293 36.0025C25.0848 36.003 25.0403 36.0033 24.9958 36.0033C18.9176 36.0033 13.9902 31.0759 13.9902 24.9977C13.9902 18.9195 18.9176 13.9922 24.9958 13.9922ZM20.5936 26.0983L16.2596 26.0994C16.7566 30.0814 19.913 33.2375 23.8952 33.734V29.3999C22.0718 29.3999 20.5936 27.9218 20.5936 26.0983ZM22.7947 24.9977V26.0983C22.7947 26.7061 23.2874 27.1988 23.8952 27.1988H26.0963C26.7042 27.1988 27.1969 26.7061 27.1969 26.0983V24.9977H22.7947ZM24.9958 16.1933C20.5059 16.1933 16.801 19.5541 16.2595 23.8972H20.5936C20.5936 23.2893 21.0863 22.7966 21.6941 22.7966H28.2974C28.9053 22.7966 29.398 23.2893 29.398 23.8972H33.7321C33.1905 19.5541 29.4856 16.1933 24.9958 16.1933Z" fill="#EA4646"/>
<path d="M29.76 31.8206L31.4393 33.5L29.76 35.1794L29.6716 35.2677L29.76 35.3561L30.6438 36.24L30.7322 36.3284L30.8206 36.24L32.5 34.5607L34.1794 36.24L34.2677 36.3284L34.3561 36.24L35.24 35.3561L35.3284 35.2677L35.24 35.1794L33.5607 33.5L35.24 31.8206L35.3284 31.7322L35.24 31.6438L34.3561 30.76L34.2677 30.6716L34.1794 30.76L32.5 32.4393L30.8206 30.76L30.7322 30.6716L30.6438 30.76L29.76 31.6438L29.6716 31.7322L29.76 31.8206ZM26.125 33.5C26.125 37.0208 28.9792 39.875 32.5 39.875C36.0208 39.875 38.875 37.0208 38.875 33.5C38.875 29.9792 36.0208 27.125 32.5 27.125C28.9792 27.125 26.125 29.9792 26.125 33.5ZM37.375 33.5C37.375 36.1924 35.1924 38.375 32.5 38.375C29.8076 38.375 27.625 36.1924 27.625 33.5C27.625 30.8076 29.8076 28.625 32.5 28.625C35.1924 28.625 37.375 30.8076 37.375 33.5Z" fill="#EA4646" stroke="#EA4646" stroke-width="0.25"/>
</svg>
