<svg width="25" height="25" viewBox="0 0 25 25" fill="none" xmlns="http://www.w3.org/2000/svg">
<g clip-path="url(#clip0_2575_34393)">
<path d="M18.2696 8.78052H20.2741C20.5399 8.78052 20.7949 8.88587 20.9828 9.07341C21.1708 9.26095 21.2764 9.5153 21.2764 9.78052V21.7805C21.2764 22.0457 21.1708 22.3001 20.9828 22.4876C20.7949 22.6752 20.5399 22.7805 20.2741 22.7805H4.23801C3.97219 22.7805 3.71726 22.6752 3.5293 22.4876C3.34134 22.3001 3.23575 22.0457 3.23575 21.7805V9.78052C3.23575 9.5153 3.34134 9.26095 3.5293 9.07341C3.71726 8.88587 3.97219 8.78052 4.23801 8.78052H6.24252V7.78052C6.24252 6.18922 6.87609 4.66309 8.00385 3.53788C9.13161 2.41266 10.6612 1.78052 12.2561 1.78052C13.851 1.78052 15.3805 2.41266 16.5083 3.53788C17.636 4.66309 18.2696 6.18922 18.2696 7.78052V8.78052ZM5.24026 10.7805V20.7805H19.2719V10.7805H5.24026ZM11.2538 14.7805H13.2583V16.7805H11.2538V14.7805ZM7.24478 14.7805H9.24929V16.7805H7.24478V14.7805ZM15.2628 14.7805H17.2674V16.7805H15.2628V14.7805ZM16.2651 8.78052V7.78052C16.2651 6.71965 15.8427 5.70224 15.0909 4.95209C14.339 4.20194 13.3193 3.78052 12.2561 3.78052C11.1928 3.78052 10.1731 4.20194 9.42125 4.95209C8.66941 5.70224 8.24704 6.71965 8.24704 7.78052V8.78052H16.2651Z" fill="black"/>
</g>
<defs>
<clipPath id="clip0_2575_34393">
<rect x="0.228973" y="0.780518" width="24.0542" height="24" rx="10" fill="white"/>
</clipPath>
</defs>
</svg>
