<svg width="52" height="52" viewBox="0 0 52 52" fill="none" xmlns="http://www.w3.org/2000/svg">
<rect width="52" height="52" rx="8" fill="#00911B" fill-opacity="0.15"/>
<path fill-rule="evenodd" clip-rule="evenodd" d="M36.0013 25.9977C36.0013 19.9195 31.0739 14.9922 24.9958 14.9922C18.9176 14.9922 13.9902 19.9195 13.9902 25.9977C13.9902 32.0759 18.9176 37.0033 24.9958 37.0033C25.1775 37.0033 25.3582 36.9989 25.5378 36.9901C25.0343 35.9814 24.7509 34.8433 24.7509 33.6389C24.7509 29.4927 28.1088 26.1315 32.2509 26.1315C33.5945 26.1315 34.8556 26.4852 35.9463 27.1046C35.9827 26.7406 36.0013 26.3713 36.0013 25.9977ZM16.2596 27.0994L20.5936 27.0983C20.5936 28.9218 22.0718 30.3999 23.8952 30.3999V34.734C19.913 34.2375 16.7566 31.0814 16.2596 27.0994ZM22.7947 27.0983V25.9977H27.1969V27.0983C27.1969 27.7061 26.7042 28.1988 26.0963 28.1988H23.8952C23.2874 28.1988 22.7947 27.7061 22.7947 27.0983ZM16.2595 24.8972C16.801 20.5541 20.5059 17.1933 24.9958 17.1933C29.4856 17.1933 33.1905 20.5541 33.7321 24.8972H29.398C29.398 24.2893 28.9053 23.7966 28.2974 23.7966H21.6941C21.0863 23.7966 20.5936 24.2893 20.5936 24.8972H16.2595Z" fill="#00911B"/>
<path d="M31.7882 36.0884L31.8766 36.1768L31.965 36.0884L36.3845 31.669L36.4728 31.5806L36.3845 31.4922L35.5006 30.6083L35.4122 30.5199L35.3238 30.6083L31.8766 34.0555L30.1973 32.3761L30.1089 32.2877L30.0205 32.3761L29.1366 33.26L29.0482 33.3484L29.1366 33.4368L31.7882 36.0884ZM26.125 33.5C26.125 37.0208 28.9792 39.875 32.5 39.875C36.0208 39.875 38.875 37.0208 38.875 33.5C38.875 29.9792 36.0208 27.125 32.5 27.125C28.9792 27.125 26.125 29.9792 26.125 33.5ZM37.375 33.5C37.375 36.1924 35.1924 38.375 32.5 38.375C29.8076 38.375 27.625 36.1924 27.625 33.5C27.625 30.8076 29.8076 28.625 32.5 28.625C35.1924 28.625 37.375 30.8076 37.375 33.5Z" fill="#00911B" stroke="#00911B" stroke-width="0.25"/>
</svg>
