<svg width="8" height="9" viewBox="0 0 8 9" fill="none" xmlns="http://www.w3.org/2000/svg">
<g clip-path="url(#clip0_2887_28455)">
<path d="M0.773451 0.25C0.822707 0.249936 0.871489 0.259606 0.916996 0.278454C0.962503 0.297302 1.00384 0.324956 1.03862 0.359828L3.14845 2.46967L4.00828 1.60983C4.0431 1.575 4.08444 1.54738 4.12994 1.52853C4.17544 1.50969 4.2242 1.49999 4.27345 1.49999C4.3227 1.49999 4.37146 1.50969 4.41696 1.52853C4.46246 1.54738 4.5038 1.575 4.53862 1.60983L6.89831 3.96952L6.89817 3.125C6.89817 3.02554 6.93768 2.93016 7.00801 2.85983C7.07833 2.78951 7.17371 2.75 7.27317 2.75C7.37263 2.75 7.46801 2.78951 7.53834 2.85983C7.60866 2.93016 7.64817 3.02554 7.64817 3.125L7.64845 4.875C7.64845 4.97446 7.60894 5.06984 7.53862 5.14017C7.46829 5.21049 7.37291 5.25 7.27345 5.25H5.52345C5.424 5.25 5.32861 5.21049 5.25829 5.14017C5.18796 5.06984 5.14845 4.97446 5.14845 4.875C5.14845 4.77554 5.18796 4.68016 5.25829 4.60983C5.32861 4.53951 5.424 4.5 5.52345 4.5H6.36812L4.27345 2.40533L3.41362 3.26517C3.3788 3.3 3.33746 3.32762 3.29196 3.34647C3.24646 3.36531 3.1977 3.37501 3.14845 3.37501C3.0992 3.37501 3.05044 3.36531 3.00494 3.34647C2.95944 3.32762 2.9181 3.3 2.88328 3.26517L0.508279 0.890172C0.455832 0.837727 0.420115 0.770907 0.405644 0.698162C0.391173 0.625417 0.3986 0.550015 0.426984 0.481492C0.455368 0.412968 0.503434 0.3544 0.565105 0.313194C0.626776 0.271989 0.699281 0.249997 0.773451 0.25Z" fill="#EB5757"/>
<path d="M7.27344 7.5H0.773438C0.673981 7.5 0.578599 7.46049 0.508272 7.39016C0.437946 7.31984 0.398438 7.22446 0.398438 7.125C0.398438 7.02554 0.437946 6.93016 0.508272 6.85984C0.578599 6.78951 0.673981 6.75 0.773438 6.75H7.27344C7.37289 6.75 7.46828 6.78951 7.5386 6.85984C7.60893 6.93016 7.64844 7.02554 7.64844 7.125C7.64844 7.22446 7.60893 7.31984 7.5386 7.39016C7.46828 7.46049 7.37289 7.5 7.27344 7.5Z" fill="#EB5757"/>
</g>
<defs>
<clipPath id="clip0_2887_28455">
<rect width="8" height="8" fill="white" transform="matrix(1 0 0 -1 0 8.5)"/>
</clipPath>
</defs>
</svg>
