<svg width="62" height="61" viewBox="0 0 62 61" fill="none" xmlns="http://www.w3.org/2000/svg">
<g opacity="0.4" filter="url(#filter0_f_635_16432)">
<circle cx="31" cy="30.4999" r="18.5" fill="#E10C0C"/>
<circle cx="31" cy="30.4999" r="18.25" stroke="white" stroke-opacity="0.32" stroke-width="0.5"/>
</g>
<g filter="url(#filter1_b_635_16432)">
<circle cx="31" cy="26.9999" r="20" fill="url(#paint0_linear_635_16432)"/>
<circle cx="31" cy="26.9999" r="19.625" stroke="white" stroke-opacity="0.32" stroke-width="0.75"/>
</g>
<path d="M30.9986 24.4993V27.6243M23.2461 30.4377C22.5245 31.6877 23.427 33.2493 24.8695 33.2493H37.1278C38.5695 33.2493 39.472 31.6877 38.7511 30.4377L32.6228 19.8143C31.9011 18.5643 30.0961 18.5643 29.3745 19.8143L23.2461 30.4377ZM30.9986 30.1243H31.0045V30.131H30.9986V30.1243Z" stroke="white" stroke-width="1.66667" stroke-linecap="round" stroke-linejoin="round"/>
<defs>
<filter id="filter0_f_635_16432" x="0.5" y="-0.00012207" width="61" height="61" filterUnits="userSpaceOnUse" color-interpolation-filters="sRGB">
<feFlood flood-opacity="0" result="BackgroundImageFix"/>
<feBlend mode="normal" in="SourceGraphic" in2="BackgroundImageFix" result="shape"/>
<feGaussianBlur stdDeviation="6" result="effect1_foregroundBlur_635_16432"/>
</filter>
<filter id="filter1_b_635_16432" x="-29" y="-33.0001" width="120" height="120" filterUnits="userSpaceOnUse" color-interpolation-filters="sRGB">
<feFlood flood-opacity="0" result="BackgroundImageFix"/>
<feGaussianBlur in="BackgroundImageFix" stdDeviation="20"/>
<feComposite in2="SourceAlpha" operator="in" result="effect1_backgroundBlur_635_16432"/>
<feBlend mode="normal" in="SourceGraphic" in2="effect1_backgroundBlur_635_16432" result="shape"/>
</filter>
<linearGradient id="paint0_linear_635_16432" x1="16.25" y1="11.7499" x2="43.25" y2="45.4999" gradientUnits="userSpaceOnUse">
<stop stop-color="#EA4646"/>
<stop offset="1" stop-color="#DF0000"/>
</linearGradient>
</defs>
</svg>
