<svg width="44" height="44" viewBox="0 0 44 44" fill="none" xmlns="http://www.w3.org/2000/svg">
<path d="M11.2727 15.6364H14.9091C14.9091 16.6391 15.7246 17.4545 16.7273 17.4545H18.5455C19.5482 17.4545 20.3636 16.6391 20.3636 15.6364H33.0909C33.5927 15.6364 34 15.23 34 14.7273C34 14.2245 33.5927 13.8182 33.0909 13.8182H20.3636C20.3636 12.8155 19.5482 12 18.5455 12H16.7273C15.7246 12 14.9091 12.8155 14.9091 13.8182H11.2727C10.7709 13.8182 10.3636 14.2245 10.3636 14.7273C10.3636 15.23 10.7709 15.6364 11.2727 15.6364Z" fill="#2061A8"/>
<path d="M33.0909 21.0909H27.6364C27.6364 20.0882 26.8209 19.2727 25.8182 19.2727H24C22.9973 19.2727 22.1818 20.0882 22.1818 21.0909H11.2727C10.7709 21.0909 10.3636 21.4973 10.3636 22C10.3636 22.5027 10.7709 22.9091 11.2727 22.9091H22.1818C22.1818 23.9118 22.9973 24.7273 24 24.7273H25.8182C26.8209 24.7273 27.6364 23.9118 27.6364 22.9091H33.0909C33.5927 22.9091 34 22.5027 34 22C34 21.4973 33.5927 21.0909 33.0909 21.0909Z" fill="#2061A8"/>
<path d="M33.0909 28.3636H20.3636C20.3636 27.3609 19.5482 26.5454 18.5455 26.5454H16.7273C15.7246 26.5454 14.9091 27.3609 14.9091 28.3636H11.2727C10.7709 28.3636 10.3636 28.77 10.3636 29.2727C10.3636 29.7754 10.7709 30.1818 11.2727 30.1818H14.9091C14.9091 31.1845 15.7246 32 16.7273 32H18.5455C19.5482 32 20.3636 31.1845 20.3636 30.1818H33.0909C33.5927 30.1818 34 29.7754 34 29.2727C34 28.77 33.5927 28.3636 33.0909 28.3636Z" fill="#2061A8"/>
<rect x="0.5" y="0.5" width="43" height="43" rx="7.5" stroke="#F1EDEE"/>
</svg>
