<svg width="27" height="27" viewBox="0 0 27 27" fill="none" xmlns="http://www.w3.org/2000/svg">
<path d="M11.8205 18.5101H5.14917" stroke="#345011" stroke-width="1.58824" stroke-linecap="round" stroke-linejoin="round"/>
<path d="M14.7959 8.24743H21.4672" stroke="#345011" stroke-width="1.58824" stroke-linecap="round" stroke-linejoin="round"/>
<path fill-rule="evenodd" clip-rule="evenodd" d="M10.1222 8.19014C10.1222 6.81827 9.00182 5.70587 7.62007 5.70587C6.23833 5.70587 5.11792 6.81827 5.11792 8.19014C5.11792 9.56201 6.23833 10.6744 7.62007 10.6744C9.00182 10.6744 10.1222 9.56201 10.1222 8.19014Z" stroke="#345011" stroke-width="1.58824" stroke-linecap="round" stroke-linejoin="round"/>
<path fill-rule="evenodd" clip-rule="evenodd" d="M22.059 18.4686C22.059 17.0968 20.9394 15.9844 19.5577 15.9844C18.1751 15.9844 17.0547 17.0968 17.0547 18.4686C17.0547 19.8405 18.1751 20.9529 19.5577 20.9529C20.9394 20.9529 22.059 19.8405 22.059 18.4686Z" stroke="#345011" stroke-width="1.58824" stroke-linecap="round" stroke-linejoin="round"/>
</svg>
