<svg width="52" height="52" viewBox="0 0 52 52" fill="none" xmlns="http://www.w3.org/2000/svg">
<rect width="52" height="52" rx="8" fill="#4A93FF" fill-opacity="0.15"/>
<g clip-path="url(#clip0_5296_14732)">
<path fill-rule="evenodd" clip-rule="evenodd" d="M36.25 23.5252V13.75C36.25 13.0597 35.6904 12.5 35 12.5H15C14.3097 12.5 13.75 13.0597 13.75 13.75V36.25C13.75 36.9404 14.3097 37.5 15 37.5H23.4246C22.9969 36.7238 22.6693 35.8846 22.4589 35H16.25V15H33.75V22.7863C34.6263 22.9239 35.4648 23.1754 36.25 23.5252ZM25.767 25H18.75V27.5H23.6254C24.1981 26.5526 24.9233 25.7079 25.767 25ZM22.5483 30C22.3279 30.7978 22.2037 31.6355 22.189 32.5H18.75V30H22.5483ZM31.25 18.75H26.25V21.25H31.25V18.75Z" fill="#4A93FF"/>
<path d="M21.25 20.5C20.1454 20.5 19.25 21.3955 19.25 22.5H23.25C23.25 21.3955 22.3545 20.5 21.25 20.5Z" fill="#4A93FF"/>
<path d="M20 18.75C20 19.4404 20.5596 20 21.25 20C21.9404 20 22.5 19.4404 22.5 18.75C22.5 18.0596 21.9404 17.5 21.25 17.5C20.5596 17.5 20 18.0596 20 18.75Z" fill="#4A93FF"/>
<path d="M31.0938 34.0625H30.9375V34.2188V35.7812V35.9375H31.0938H32.6562H32.8125V35.7812V34.2188V34.0625H32.6562H31.0938ZM31.0938 27.8125H30.9375V27.9688V32.6562V32.8125H31.0938H32.6562H32.8125V32.6562V27.9688V27.8125H32.6562H31.0938ZM23.9062 31.875C23.9062 36.276 27.474 39.8438 31.875 39.8438C36.276 39.8438 39.8438 36.276 39.8438 31.875C39.8438 27.474 36.276 23.9062 31.875 23.9062C27.474 23.9062 23.9062 27.474 23.9062 31.875ZM37.9688 31.875C37.9688 35.2405 35.2405 37.9688 31.875 37.9688C28.5095 37.9688 25.7812 35.2405 25.7812 31.875C25.7812 28.5095 28.5095 25.7812 31.875 25.7812C35.2405 25.7812 37.9688 28.5095 37.9688 31.875Z" fill="#4A93FF" stroke="#4A93FF" stroke-width="0.3125"/>
</g>
<defs>
<clipPath id="clip0_5296_14732">
<rect width="30" height="30" fill="white" transform="translate(11 11)"/>
</clipPath>
</defs>
</svg>
