<svg width="25" height="25" viewBox="0 0 25 25" fill="none" xmlns="http://www.w3.org/2000/svg">
<g clip-path="url(#clip0_2575_34396)">
<path d="M5.24026 22.7805C4.97445 22.7805 4.71952 22.6752 4.53156 22.4876C4.3436 22.3001 4.23801 22.0457 4.23801 21.7805V3.78052C4.23801 3.5153 4.3436 3.26095 4.53156 3.07341C4.71952 2.88587 4.97445 2.78052 5.24026 2.78052H19.2719C19.5377 2.78052 19.7926 2.88587 19.9806 3.07341C20.1685 3.26095 20.2741 3.5153 20.2741 3.78052V6.78052H18.2696V4.78052H6.24252V20.7805H18.2696V18.7805H20.2741V21.7805C20.2741 22.0457 20.1685 22.3001 19.9806 22.4876C19.7926 22.6752 19.5377 22.7805 19.2719 22.7805H5.24026ZM18.2696 16.7805V13.7805H11.2538V11.7805H18.2696V8.78052L23.2809 12.7805L18.2696 16.7805Z" fill="black"/>
</g>
<defs>
<clipPath id="clip0_2575_34396">
<rect x="0.228973" y="0.780518" width="24.0542" height="24" rx="10" fill="white"/>
</clipPath>
</defs>
</svg>
