<svg width="25" height="25" viewBox="0 0 25 25" fill="none" xmlns="http://www.w3.org/2000/svg">
<g clip-path="url(#clip0_2575_34390)">
<path d="M20.2741 22.7805H18.2696V20.7805C18.2696 19.9849 17.9528 19.2218 17.3889 18.6592C16.8251 18.0966 16.0603 17.7805 15.2628 17.7805H9.24929C8.45185 17.7805 7.68706 18.0966 7.12318 18.6592C6.55931 19.2218 6.24252 19.9849 6.24252 20.7805V22.7805H4.23801V20.7805C4.23801 19.4544 4.76598 18.1827 5.70578 17.245C6.64558 16.3073 7.92022 15.7805 9.24929 15.7805H15.2628C16.5919 15.7805 17.8666 16.3073 18.8064 17.245C19.7462 18.1827 20.2741 19.4544 20.2741 20.7805V22.7805ZM12.2561 13.7805C11.4664 13.7805 10.6844 13.6253 9.95478 13.3238C9.22518 13.0223 8.56226 12.5803 8.00385 12.0232C7.44544 11.466 7.00248 10.8046 6.70027 10.0766C6.39807 9.34866 6.24252 8.56845 6.24252 7.78052C6.24252 6.99259 6.39807 6.21237 6.70027 5.48442C7.00248 4.75646 7.44544 4.09503 8.00385 3.53788C8.56226 2.98073 9.22518 2.53877 9.95478 2.23724C10.6844 1.93571 11.4664 1.78052 12.2561 1.78052C13.851 1.78052 15.3805 2.41266 16.5083 3.53788C17.636 4.66309 18.2696 6.18922 18.2696 7.78052C18.2696 9.37182 17.636 10.8979 16.5083 12.0232C15.3805 13.1484 13.851 13.7805 12.2561 13.7805ZM12.2561 11.7805C13.3193 11.7805 14.339 11.3591 15.0909 10.6089C15.8427 9.8588 16.2651 8.84138 16.2651 7.78052C16.2651 6.71965 15.8427 5.70224 15.0909 4.95209C14.339 4.20194 13.3193 3.78052 12.2561 3.78052C11.1928 3.78052 10.1731 4.20194 9.42125 4.95209C8.66941 5.70224 8.24704 6.71965 8.24704 7.78052C8.24704 8.84138 8.66941 9.8588 9.42125 10.6089C10.1731 11.3591 11.1928 11.7805 12.2561 11.7805Z" fill="black"/>
</g>
<defs>
<clipPath id="clip0_2575_34390">
<rect x="0.228973" y="0.780518" width="24.0542" height="24" rx="10" fill="white"/>
</clipPath>
</defs>
</svg>
