<svg width="62" height="61" viewBox="0 0 62 61" fill="none" xmlns="http://www.w3.org/2000/svg">
<g filter="url(#filter0_f_635_16414)">
<circle cx="31" cy="30.5" r="18.5" fill="url(#paint0_linear_635_16414)" fill-opacity="0.4"/>
<circle cx="31" cy="30.5" r="18.25" stroke="white" stroke-opacity="0.32" stroke-width="0.5"/>
</g>
<g filter="url(#filter1_b_635_16414)">
<circle cx="31" cy="27" r="20" fill="url(#paint1_linear_635_16414)"/>
<circle cx="31" cy="27" r="19.625" stroke="white" stroke-opacity="0.32" stroke-width="0.75"/>
</g>
<path d="M28.6471 29.8175C28.8424 30.0127 29.159 30.0127 29.3542 29.8175L37.486 21.6857C37.8765 21.2952 38.5097 21.2952 38.9002 21.6857C39.2907 22.0763 39.2907 22.7094 38.9002 23.0999L29.3542 32.6459C29.159 32.8411 28.8424 32.8411 28.6471 32.6459L23.3438 27.3426C22.9533 26.9521 22.9533 26.3189 23.3438 25.9284C23.7344 25.5379 24.3675 25.5379 24.758 25.9284L28.6471 29.8175Z" fill="white" stroke="white" stroke-width="0.75"/>
<defs>
<filter id="filter0_f_635_16414" x="0.5" y="0" width="61" height="61" filterUnits="userSpaceOnUse" color-interpolation-filters="sRGB">
<feFlood flood-opacity="0" result="BackgroundImageFix"/>
<feBlend mode="normal" in="SourceGraphic" in2="BackgroundImageFix" result="shape"/>
<feGaussianBlur stdDeviation="6" result="effect1_foregroundBlur_635_16414"/>
</filter>
<filter id="filter1_b_635_16414" x="-9" y="-13" width="80" height="80" filterUnits="userSpaceOnUse" color-interpolation-filters="sRGB">
<feFlood flood-opacity="0" result="BackgroundImageFix"/>
<feGaussianBlur in="BackgroundImageFix" stdDeviation="10"/>
<feComposite in2="SourceAlpha" operator="in" result="effect1_backgroundBlur_635_16414"/>
<feBlend mode="normal" in="SourceGraphic" in2="effect1_backgroundBlur_635_16414" result="shape"/>
</filter>
<linearGradient id="paint0_linear_635_16414" x1="17.3563" y1="16.3937" x2="42.3313" y2="47.6125" gradientUnits="userSpaceOnUse">
<stop stop-color="#25CD57"/>
<stop offset="1" stop-color="#0E9735"/>
</linearGradient>
<linearGradient id="paint1_linear_635_16414" x1="16.25" y1="11.75" x2="43.25" y2="45.5" gradientUnits="userSpaceOnUse">
<stop stop-color="#25CD57"/>
<stop offset="1" stop-color="#0E9735"/>
</linearGradient>
</defs>
</svg>
