<svg width="48" height="48" viewBox="0 0 48 48" fill="none" xmlns="http://www.w3.org/2000/svg">
<rect width="48" height="48" rx="17" fill="white"/>
<circle cx="23.5" cy="19.875" r="5.5" fill="black"/>
<circle cx="30.375" cy="19.875" r="4.125" fill="black"/>
<circle cx="16.625" cy="19.875" r="4.125" fill="black"/>
<path fill-rule="evenodd" clip-rule="evenodd" d="M31.1566 32.25H34.3557C35.1692 32.25 35.7929 31.5489 35.5953 30.7598C35.089 28.738 33.7409 25.375 30.3751 25.375C29.1567 25.375 28.2027 25.8156 27.4573 26.4738C29.5305 27.8189 30.6024 30.1741 31.1566 32.25Z" fill="black"/>
<path fill-rule="evenodd" clip-rule="evenodd" d="M19.5427 26.4738C18.7973 25.8156 17.8434 25.375 16.625 25.375C13.2591 25.375 11.911 28.738 11.4047 30.7598C11.2071 31.5489 11.8309 32.25 12.6443 32.25H15.8434C16.3976 30.1741 17.4696 27.8188 19.5427 26.4738Z" fill="black"/>
<path d="M23.5 26.75C28.5994 26.75 29.9164 31.2889 30.2566 33.6334C30.3656 34.3849 29.7594 35 29 35H18C17.2406 35 16.6344 34.3849 16.7434 33.6334C17.0836 31.2889 18.4006 26.75 23.5 26.75Z" fill="black"/>
</svg>
