<svg width="52" height="52" viewBox="0 0 52 52" fill="none" xmlns="http://www.w3.org/2000/svg">
<rect width="52" height="52" rx="8" fill="#1CA2B7" fill-opacity="0.15"/>
<path d="M24.9958 14.9922C31.0739 14.9922 36.0013 19.9195 36.0013 25.9977C36.0013 32.0759 31.0739 37.0033 24.9958 37.0033C18.9176 37.0033 13.9902 32.0759 13.9902 25.9977C13.9902 19.9195 18.9176 14.9922 24.9958 14.9922ZM20.5936 27.0983L16.2596 27.0994C16.7566 31.0814 19.913 34.2375 23.8952 34.734V30.3999C22.0718 30.3999 20.5936 28.9218 20.5936 27.0983ZM33.732 27.0994L29.398 27.0983C29.398 28.9218 27.9198 30.3999 26.0963 30.3999L26.0974 34.7339C30.0791 34.2369 33.235 31.0811 33.732 27.0994ZM27.1969 25.9977H22.7947V27.0983C22.7947 27.7061 23.2874 28.1988 23.8952 28.1988H26.0963C26.7042 28.1988 27.1969 27.7061 27.1969 27.0983V25.9977ZM24.9958 17.1933C20.5059 17.1933 16.801 20.5541 16.2595 24.8972H20.5936C20.5936 24.2893 21.0863 23.7966 21.6941 23.7966H28.2974C28.9053 23.7966 29.398 24.2893 29.398 24.8972H33.7321C33.1905 20.5541 29.4856 17.1933 24.9958 17.1933Z" fill="#1CA2B7"/>
</svg>
