<svg width="48" height="48" viewBox="0 0 48 48" fill="none" xmlns="http://www.w3.org/2000/svg">
<rect width="48" height="48" rx="17" fill="white"/>
<path d="M31.2083 11.125H34.2917C35.9945 11.125 37.375 12.5055 37.375 14.2083V17.2917M31.2083 38.875H34.2917C35.9945 38.875 37.375 37.4945 37.375 35.7917V32.7083M15.7917 11.125H12.7083C11.0055 11.125 9.625 12.5055 9.625 14.2083V17.2917M15.7917 38.875H12.7083C11.0055 38.875 9.625 37.4945 9.625 35.7917V32.7083" stroke="black" stroke-width="3.08333" stroke-linecap="round"/>
<path fill-rule="evenodd" clip-rule="evenodd" d="M26.6854 31.1633C26.7193 31.1655 26.7536 31.1667 26.7881 31.1667H32.5454C33.4727 31.1667 34.1727 30.3462 33.8099 29.4928C33.2471 28.1688 32.0671 26.5417 29.6668 26.5417C28.3456 26.5417 27.3942 27.0346 26.7118 27.6986C27.3219 28.29 27.6686 29.0171 27.8656 29.6525C28.1076 30.4329 27.4883 31.11 26.6854 31.1633Z" fill="black"/>
<path fill-rule="evenodd" clip-rule="evenodd" d="M20.2882 27.6985C19.6059 27.0346 18.6544 26.5417 17.3333 26.5417C14.933 26.5417 13.753 28.1688 13.1901 29.4928C12.8273 30.3462 13.5274 31.1667 14.4547 31.1667H20.212C20.2465 31.1667 20.2807 31.1655 20.3146 31.1633C19.5117 31.11 18.8924 30.4329 19.1344 29.6525C19.3314 29.017 19.6781 28.2899 20.2882 27.6985Z" fill="black"/>
<path d="M23.5 26.5417C26.3546 26.5417 27.4473 28.3036 27.8656 29.6525C28.1178 30.4657 27.4348 31.1667 26.5833 31.1667H20.4167C19.5652 31.1667 18.8822 30.4657 19.1344 29.6525C19.5527 28.3036 20.6454 26.5417 23.5 26.5417Z" fill="black"/>
<circle cx="23.5" cy="20.375" r="3.08333" fill="black"/>
<circle cx="29.6667" cy="20.375" r="3.08333" fill="black"/>
<circle cx="17.3333" cy="20.375" r="3.08333" fill="black"/>
</svg>
