<svg width="8" height="9" viewBox="0 0 8 9" fill="none" xmlns="http://www.w3.org/2000/svg">
<path d="M0.750014 6.25C0.799269 6.25006 0.848052 6.24039 0.893559 6.22155C0.939065 6.2027 0.980399 6.17504 1.01519 6.14017L3.12501 4.03033L3.98484 4.89017C4.01966 4.925 4.061 4.95262 4.1065 4.97147C4.152 4.99031 4.20077 5.00001 4.25001 5.00001C4.29926 5.00001 4.34803 4.99031 4.39352 4.97147C4.43902 4.95262 4.48036 4.925 4.51519 4.89017L6.87487 2.53048L6.87473 3.375C6.87473 3.47446 6.91424 3.56984 6.98457 3.64017C7.05489 3.71049 7.15028 3.75 7.24973 3.75C7.34919 3.75 7.44457 3.71049 7.5149 3.64017C7.58522 3.56984 7.62473 3.47446 7.62473 3.375L7.62501 1.625C7.62501 1.52554 7.58551 1.43016 7.51518 1.35983C7.44485 1.28951 7.34947 1.25 7.25001 1.25H5.50001C5.40056 1.25 5.30518 1.28951 5.23485 1.35983C5.16452 1.43016 5.12501 1.52554 5.12501 1.625C5.12501 1.72446 5.16452 1.81984 5.23485 1.89017C5.30518 1.96049 5.40056 2 5.50001 2H6.34469L4.25001 4.09467L3.39019 3.23483C3.35536 3.2 3.31402 3.17238 3.26852 3.15353C3.22303 3.13469 3.17426 3.12499 3.12501 3.12499C3.07577 3.12499 3.027 3.13469 2.9815 3.15353C2.936 3.17238 2.89466 3.2 2.85984 3.23483L0.484842 5.60983C0.432394 5.66227 0.396677 5.72909 0.382206 5.80184C0.367736 5.87458 0.375162 5.94998 0.403546 6.01851C0.43193 6.08703 0.479997 6.1456 0.541668 6.18681C0.603339 6.22801 0.675844 6.25 0.750014 6.25Z" fill="#219653"/>
<path d="M7.25 7H0.75C0.650544 7 0.555161 7.03951 0.484835 7.10984C0.414509 7.18016 0.375 7.27554 0.375 7.375C0.375 7.47446 0.414509 7.56984 0.484835 7.64016C0.555161 7.71049 0.650544 7.75 0.75 7.75H7.25C7.34946 7.75 7.44484 7.71049 7.51516 7.64016C7.58549 7.56984 7.625 7.47446 7.625 7.375C7.625 7.27554 7.58549 7.18016 7.51516 7.10984C7.44484 7.03951 7.34946 7 7.25 7Z" fill="#219653"/>
</svg>
